<?xml version="1.0" encoding="utf-8"?>
<svg viewBox="0 0 20.93 22.6" xmlns="http://www.w3.org/2000/svg">
  <defs>
    <style>.cls-1{fill:none;}.cls-2{isolation:isolate;}.cls-3{clip-path:url(#clip-path);}.cls-4,.cls-6{fill:#98d2fc;}.cls-5{fill:#9fc455;}.cls-6{opacity:0.5;mix-blend-mode:multiply;}</style>
    <clipPath id="clip-path" transform="translate(0.08 1.33)">
      <path class="cls-1" d="M17.09,2.93,17,2.8A9.62,9.62,0,0,0,11.47.09,11.56,11.56,0,0,0,10,0,9.59,9.59,0,0,0,3.64,2.28c-.24.2-.48.42-.71.65A9.73,9.73,0,0,0,.29,7.49,10.87,10.87,0,0,0,0,10c0,.28,0,.56,0,.83a9.62,9.62,0,0,0,2.9,6.25A9.64,9.64,0,0,0,10,20a9.61,9.61,0,0,0,7.08-2.93A9.61,9.61,0,0,0,20,10a11.56,11.56,0,0,0-.09-1.46A9.59,9.59,0,0,0,17.09,2.93Z"/>
    </clipPath>
  </defs>
  <g class="cls-2">
    <g id="Layer_2" data-name="Layer 2">
      <g id="Layer_1-2" data-name="Layer 1">
        <g class="cls-3">
          <g id="Layer0_5_FILL" data-name="Layer0 5 FILL">
            <path class="cls-4" d="M10,20a9.74,9.74,0,0,1-7.11-2.94A9.7,9.7,0,0,1,0,10.81V10.7l.08.07a1.28,1.28,0,0,0,.74.32c.33,0,.56.34.68.89s.2.88.23,1a.55.55,0,0,0,.34.33,1.08,1.08,0,0,0,.45.12h.16a1.25,1.25,0,0,1,.65.27,1.08,1.08,0,0,1,.48.79,5.14,5.14,0,0,1,0,1,1.2,1.2,0,0,0,.19.73.48.48,0,0,0,.33.17.43.43,0,0,0,.32-.17,1.51,1.51,0,0,0,.07-.56,3.63,3.63,0,0,0-.24-.91,5,5,0,0,1-.25-1.56,2.05,2.05,0,0,1,.52-1.45,3.65,3.65,0,0,1,1.17-.86,1.81,1.81,0,0,0,.9-.82l.37-.64a3.66,3.66,0,0,1,1-.69c.47-.24.7-.53.68-.87a.71.71,0,0,0-.35-.66L7.93,7a3.68,3.68,0,0,0-.63-.06.5.5,0,0,1-.53-.51c0-.29-.23-.45-.59-.51s-.84-.11-1.38-.2a.9.9,0,0,1-.85-1c0-.16.2-.36.62-.6s.64-.46.66-.54a1.28,1.28,0,0,1,.23-.73.59.59,0,0,1,.43-.21.39.39,0,0,1,.33.11A.45.45,0,0,1,6.3,3a3,3,0,0,1-.07.33,2.24,2.24,0,0,0-.08.57V4.2c0,.19.13.28.25.28l.11,0c.19-.06.33-.26.43-.59a6.54,6.54,0,0,1,.16-.81,2,2,0,0,1,.69-.85c.2-.16.46-.36.76-.57,0,0,.17-.16.61-.63A2.32,2.32,0,0,1,10,.46a3.8,3.8,0,0,1,1-.17A.81.81,0,0,0,11.39,0l0,0h0a9.57,9.57,0,0,1,5.5,2.72h0v0A1.46,1.46,0,0,1,16.1,4a8.32,8.32,0,0,0-1.42.35,2.39,2.39,0,0,0-.49.32l-.31.23a4.26,4.26,0,0,0-.66.37.52.52,0,0,0-.19.44c0,.24.11.36.34.36s.33-.12.5-.36.34-.39.49-.39a.49.49,0,0,1,.41.28c.14.24.23.31.29.33a1.66,1.66,0,0,1,.55.25c.09.06.13.21.13.44a.33.33,0,0,1-.27.34,1.47,1.47,0,0,1-.41,0,.61.61,0,0,1-.42-.14.82.82,0,0,0-.56-.14.81.81,0,0,0-.34.08,1,1,0,0,1-.34.14h-.16a2.6,2.6,0,0,0-.56.06L12.17,7a.28.28,0,0,0-.26.15c0,.09-.07.21-.13.35a1.23,1.23,0,0,0-.06.36.4.4,0,0,0,0,.15.45.45,0,0,1,.07.27,2.52,2.52,0,0,1-.09.38,2.28,2.28,0,0,0-.1.57c0,.29.29.52.85.69a6.11,6.11,0,0,1,1.73.72,10,10,0,0,1,.84.7c.35.34.53.58.53.72a2.1,2.1,0,0,1-.17.56,2.41,2.41,0,0,0-.18.63c0,.05,0,.17-.29.52a1.07,1.07,0,0,0-.28.53c0,.14,0,.18,0,.19s0,0,.19,0a.7.7,0,0,0,.67-.48,4.42,4.42,0,0,1,.38-.78,3.91,3.91,0,0,1,1-.51c.52-.22.82-.36.9-.41l1-.78a1.58,1.58,0,0,0,.37-1.11c0-.29-.08-.43-.25-.46h-.23a4.06,4.06,0,0,1-.64-.05.85.85,0,0,1-.67-.56,2,2,0,0,0-.23-.6l-.48-.51a.73.73,0,0,1-.27-.53,1.67,1.67,0,0,0-.09-.52,3,3,0,0,1-.17-.46v0h0a1.33,1.33,0,0,1,.38-.07.47.47,0,0,1,.52.4v.59a3,3,0,0,0,.46,1,.88.88,0,0,1,.1.28.28.28,0,0,0,.22.15l.25.05.29,0c.13,0,.31-.13.52-.39a1,1,0,0,1,.72-.42.69.69,0,0,1,.27.1h0v0A11.84,11.84,0,0,1,20,10a9.74,9.74,0,0,1-2.94,7.11A9.74,9.74,0,0,1,10,20ZM14,15a.31.31,0,0,0-.27.15.57.57,0,0,1-.32.37.87.87,0,0,0-.31.18.43.43,0,0,0-.2.33c0,.13.16.19.47.19a1.17,1.17,0,0,0,.77-.34.92.92,0,0,0,.4-.65c0-.1,0-.22-.08-.24H14ZM7.65,10.59a.33.33,0,0,0-.24.08l0,.05a.7.7,0,0,1-.11.23L7.19,11a.82.82,0,0,1-.34.21c-.2.07-.31.15-.31.25s.11.3.35.3a.51.51,0,0,0,.3-.08,3.43,3.43,0,0,0,.43-.38.62.62,0,0,0,.27-.5.52.52,0,0,0,0-.21S7.83,10.59,7.65,10.59ZM.21,7.43A9.83,9.83,0,0,1,2.86,2.86c.23-.23.47-.45.71-.66l0,0,0,.05c.1.18.21.39.34.61a.8.8,0,0,1,.11.66,1.42,1.42,0,0,1-.42.56.82.82,0,0,0-.32.52,1.29,1.29,0,0,0,.21.57.66.66,0,0,1-.1.78A2.86,2.86,0,0,1,1.58,7.28a7.94,7.94,0,0,0-1.32.2l-.07,0Z" transform="translate(0.08 1.33)"/>
            <path class="cls-4" d="M4,3.47a.72.72,0,0,0-.11-.62L3.6,2.24c-.24.2-.48.42-.71.65A9.74,9.74,0,0,0,.25,7.44a8.09,8.09,0,0,1,1.33-.2A2.83,2.83,0,0,0,3.42,5.9a.63.63,0,0,0,.09-.74,1.33,1.33,0,0,1-.21-.58A.78.78,0,0,1,3.63,4,1.46,1.46,0,0,0,4,3.47M9.19,1c-.35.38-.56.59-.61.63-.31.22-.56.41-.76.58a1.93,1.93,0,0,0-.68.82c0,.14-.09.41-.16.81s-.25.56-.46.62-.35,0-.41-.3V3.88a2.25,2.25,0,0,1,.08-.58c0-.19.07-.3.07-.32a.42.42,0,0,0-.07-.23c-.05-.07-.14-.1-.3-.1a.55.55,0,0,0-.4.2,1.26,1.26,0,0,0-.22.71c0,.13-.25.33-.68.57s-.6.41-.6.56a.86.86,0,0,0,.81.94c.55.09,1,.16,1.39.2s.58.24.62.54.2.48.49.48a3.83,3.83,0,0,1,.64.06l.56.22a.75.75,0,0,1,.38.7c0,.35-.21.66-.7.9a3.43,3.43,0,0,0-1,.69c0,.05-.16.27-.36.63a1.94,1.94,0,0,1-.92.84,3.58,3.58,0,0,0-1.16.85,2.06,2.06,0,0,0-.51,1.42,4.94,4.94,0,0,0,.25,1.55,3.57,3.57,0,0,1,.24.92,1.51,1.51,0,0,1-.08.59.43.43,0,0,1-.71,0,1.18,1.18,0,0,1-.2-.76,5.14,5.14,0,0,0,0-1,1,1,0,0,0-.47-.76,1,1,0,0,0-.67-.25A1,1,0,0,1,2,13.37.62.62,0,0,1,1.63,13c0-.14-.1-.48-.23-1s-.33-.82-.64-.85A1.39,1.39,0,0,1,0,10.8a9.62,9.62,0,0,0,2.9,6.25A9.61,9.61,0,0,0,10,20a9.61,9.61,0,0,0,7.08-2.93A9.65,9.65,0,0,0,20,10a11.56,11.56,0,0,0-.09-1.46.7.7,0,0,0-.25-.1.92.92,0,0,0-.69.41c-.22.27-.4.4-.55.4l-.3,0-.25,0A.3.3,0,0,1,17.6,9a1.39,1.39,0,0,0-.09-.27,3,3,0,0,1-.47-1V7.06a.43.43,0,0,0-.48-.36,1.13,1.13,0,0,0-.36.06s.05.16.16.44a1.56,1.56,0,0,1,.1.55.7.7,0,0,0,.26.49,6.62,6.62,0,0,0,.49.51,2.16,2.16,0,0,1,.23.62.82.82,0,0,0,.64.53,4.64,4.64,0,0,0,.86,0c.2,0,.29.19.29.5a1.56,1.56,0,0,1-.38,1.13s-.37.31-1,.79a7,7,0,0,1-.9.42,3.87,3.87,0,0,0-1,.5,6.12,6.12,0,0,0-.37.77.76.76,0,0,1-.71.51c-.11,0-.18,0-.21,0s-.06-.1-.06-.22a1.17,1.17,0,0,1,.29-.56,1.14,1.14,0,0,0,.28-.49,2.61,2.61,0,0,1,.18-.65,2.21,2.21,0,0,0,.16-.54c0-.13-.17-.36-.51-.68a6.49,6.49,0,0,0-.84-.7A5.79,5.79,0,0,0,12.49,10c-.59-.17-.88-.42-.88-.73a2,2,0,0,1,.1-.58,3.65,3.65,0,0,0,.09-.37A.49.49,0,0,0,11.74,8a.38.38,0,0,1-.06-.17,1.24,1.24,0,0,1,.06-.37c.06-.15.1-.27.13-.36A.33.33,0,0,1,12.16,7l.51-.06a2.84,2.84,0,0,1,.72-.06,1.21,1.21,0,0,0,.33-.13.74.74,0,0,1,.36-.09.86.86,0,0,1,.59.15.58.58,0,0,0,.39.13,1.9,1.9,0,0,0,.4,0,.3.3,0,0,0,.24-.3c0-.21,0-.35-.12-.41A1.53,1.53,0,0,0,15,5.92c-.09,0-.19-.15-.31-.35a.45.45,0,0,0-.37-.26c-.13,0-.29.13-.46.38a.69.69,0,0,1-.53.37c-.26,0-.38-.13-.38-.4a.55.55,0,0,1,.2-.47,4.86,4.86,0,0,1,.67-.38l.3-.22a2.18,2.18,0,0,1,.51-.33,8.41,8.41,0,0,1,1.41-.35,1.39,1.39,0,0,0,.82-1.15A9.51,9.51,0,0,0,11.43.05.83.83,0,0,1,11,.33,3.8,3.8,0,0,0,10,.5,2.3,2.3,0,0,0,9.19,1m-1.81,9.6a.37.37,0,0,1,.27-.09.56.56,0,0,1,.24,0s0,.11,0,.25a.66.66,0,0,1-.28.53,5.28,5.28,0,0,1-.43.39.67.67,0,0,1-.33.08c-.26,0-.39-.11-.39-.34s.11-.22.34-.29a.7.7,0,0,0,.32-.2l.06-.07a.66.66,0,0,0,.11-.24l0,0m6.82,5.25a1.24,1.24,0,0,1-.8.34c-.34,0-.51-.08-.51-.23a.46.46,0,0,1,.21-.36.88.88,0,0,1,.32-.19.54.54,0,0,0,.3-.34c0-.1.14-.16.31-.18h.47c.07,0,.11.12.11.28A1,1,0,0,1,14.2,15.89Z" transform="translate(0.08 1.33)"/>
            <path class="cls-5" d="M4.3,16.45a.59.59,0,0,1-.39-.2,1.21,1.21,0,0,1-.21-.79,5,5,0,0,0,0-1,1,1,0,0,0-.45-.73,1.17,1.17,0,0,0-.6-.26H2.46A1.17,1.17,0,0,1,2,13.41.65.65,0,0,1,1.59,13c0-.14-.1-.48-.23-1S1,11.21.75,11.18A1.4,1.4,0,0,1,0,10.83H0q0-.42,0-.84A11.11,11.11,0,0,1,.21,7.43v0h0a9.26,9.26,0,0,1,1.34-.21A2.77,2.77,0,0,0,3.39,5.87a.6.6,0,0,0,.09-.69,1.47,1.47,0,0,1-.23-.6A.86.86,0,0,1,3.6,4,1.38,1.38,0,0,0,4,3.46a.72.72,0,0,0-.11-.59l-.33-.61v0l0,0A9.72,9.72,0,0,1,10-.08,11.56,11.56,0,0,1,11.43,0h.08l0,.06A.86.86,0,0,1,11,.37a3.54,3.54,0,0,0-1,.17,2.28,2.28,0,0,0-.8.53c-.36.38-.56.59-.62.64-.3.21-.56.4-.76.57a1.9,1.9,0,0,0-.66.8c0,.14-.09.41-.16.81a.85.85,0,0,1-.49.65.3.3,0,0,1-.13,0c-.16,0-.27-.12-.33-.35V3.88a2.33,2.33,0,0,1,.08-.59C6.21,3,6.22,3,6.22,3a.31.31,0,0,0-.07-.21S6,2.69,5.89,2.69a.54.54,0,0,0-.37.19,1.27,1.27,0,0,0-.21.68c0,.16-.26.35-.69.6S4,4.6,4,4.69a.81.81,0,0,0,.78.89q.83.15,1.38.21c.4.06.62.25.66.58s.19.44.45.44A4,4,0,0,1,8,6.87c.15,0,.34.12.57.22a.79.79,0,0,1,.4.74c0,.37-.22.68-.72.94a3.28,3.28,0,0,0-1,.68c0,.05-.16.26-.36.62a1.89,1.89,0,0,1-1,.85,3.77,3.77,0,0,0-1.14.85,2,2,0,0,0-.5,1.39,4.87,4.87,0,0,0,.25,1.54,3.71,3.71,0,0,1,.24.93,1.37,1.37,0,0,1-.09.61A.51.51,0,0,1,4.3,16.45Zm9.1-.18c-.36,0-.55-.09-.55-.27a.51.51,0,0,1,.22-.39,1,1,0,0,1,.34-.2.47.47,0,0,0,.27-.32.38.38,0,0,1,.34-.2h.5c.09,0,.13.14.13.32a1,1,0,0,1-.42.72A1.33,1.33,0,0,1,13.4,16.27Zm1.51-1.67c-.16,0-.21,0-.23,0s-.08-.12-.08-.26a1.16,1.16,0,0,1,.3-.58c.22-.3.27-.42.27-.47a2.19,2.19,0,0,1,.18-.66,2.51,2.51,0,0,0,.16-.53c0-.08-.08-.26-.49-.66a9.65,9.65,0,0,0-.84-.69A6.28,6.28,0,0,0,12.47,10c-.59-.18-.9-.44-.9-.77a2,2,0,0,1,.1-.59,3.1,3.1,0,0,0,.09-.36.41.41,0,0,0-.06-.23.5.5,0,0,1-.07-.19,1.46,1.46,0,0,1,.07-.39,2.28,2.28,0,0,0,.13-.35.39.39,0,0,1,.33-.21l.5,0a2.78,2.78,0,0,1,.58-.06h.15a1.14,1.14,0,0,0,.31-.13.85.85,0,0,1,.38-.09.89.89,0,0,1,.62.16.52.52,0,0,0,.36.12,1.79,1.79,0,0,0,.39,0,.26.26,0,0,0,.21-.26.52.52,0,0,0-.1-.38A1.57,1.57,0,0,0,15,6a.76.76,0,0,1-.33-.37.41.41,0,0,0-.34-.24c-.12,0-.26.12-.43.36a.73.73,0,0,1-.56.39.39.39,0,0,1-.43-.44.59.59,0,0,1,.23-.5,3.23,3.23,0,0,1,.67-.38l.3-.23a3.11,3.11,0,0,1,.51-.33,8.48,8.48,0,0,1,1.43-.35,1.37,1.37,0,0,0,.78-1.12l0-.07.05,0,.15.14A9.69,9.69,0,0,1,19.93,8.5v.08l-.07,0a.89.89,0,0,0-.23-.09.87.87,0,0,0-.65.39c-.24.29-.43.42-.59.42l-.31,0-.25-.05a.35.35,0,0,1-.28-.2,1,1,0,0,0-.09-.27A2.82,2.82,0,0,1,17,7.64V7.06a.39.39,0,0,0-.44-.32.87.87,0,0,0-.31,0s.06.15.15.4a1.41,1.41,0,0,1,.1.56.7.7,0,0,0,.25.47c.1.11.26.28.49.5a2.43,2.43,0,0,1,.24.64.76.76,0,0,0,.61.5,3.87,3.87,0,0,0,.62,0h.23c.23,0,.34.21.34.54a1.65,1.65,0,0,1-.4,1.16,12.16,12.16,0,0,1-1,.79,7.34,7.34,0,0,1-.92.43,3.69,3.69,0,0,0-.94.49,4.76,4.76,0,0,0-.37.75A.79.79,0,0,1,14.91,14.6Zm-8-2.73c-.36,0-.43-.21-.43-.38s.12-.25.37-.33a.67.67,0,0,0,.3-.19l0-.06a.61.61,0,0,0,.11-.23l.06-.07a.4.4,0,0,1,.3-.1c.19,0,.24,0,.27,0s0,.07,0,.28a.73.73,0,0,1-.29.57,5.81,5.81,0,0,1-.44.38A.63.63,0,0,1,6.89,11.87Z" transform="translate(0.08 1.33)"/>
            <path class="cls-5" d="M17.05,2.89a.93.93,0,0,0-.15-.13,1.39,1.39,0,0,1-.82,1.15,8.41,8.41,0,0,0-1.41.35,2.18,2.18,0,0,0-.51.33l-.3.22a4.86,4.86,0,0,0-.67.38.55.55,0,0,0-.2.47c0,.27.12.4.38.4a.69.69,0,0,0,.53-.37c.17-.25.33-.38.46-.38a.45.45,0,0,1,.37.26c.12.2.22.32.31.35a1.53,1.53,0,0,1,.54.24c.08.06.12.2.12.41a.3.3,0,0,1-.24.3,1.9,1.9,0,0,1-.4,0,.58.58,0,0,1-.39-.13.86.86,0,0,0-.59-.15.74.74,0,0,0-.36.09,1.21,1.21,0,0,1-.33.13,2.84,2.84,0,0,0-.72.06L12.16,7a.33.33,0,0,0-.29.17c0,.09-.07.21-.13.36a1.24,1.24,0,0,0-.06.37.38.38,0,0,0,.06.17.49.49,0,0,1,.06.25,3.65,3.65,0,0,1-.09.37,2,2,0,0,0-.1.58c0,.31.29.56.88.73a5.79,5.79,0,0,1,1.71.72,6.49,6.49,0,0,1,.84.7c.34.32.51.55.51.68a2.21,2.21,0,0,1-.16.54,2.61,2.61,0,0,0-.18.65,1.14,1.14,0,0,1-.28.49,1.17,1.17,0,0,0-.29.56c0,.12,0,.2.06.22s.1,0,.21,0a.76.76,0,0,0,.71-.51,6.12,6.12,0,0,1,.37-.77,3.87,3.87,0,0,1,1-.5,7,7,0,0,0,.9-.42c.63-.48,1-.75,1-.79a1.56,1.56,0,0,0,.38-1.13c0-.31-.09-.47-.29-.5a4.64,4.64,0,0,1-.86,0,.82.82,0,0,1-.64-.53,2.16,2.16,0,0,0-.23-.62,6.62,6.62,0,0,1-.49-.51.7.7,0,0,1-.26-.49,1.56,1.56,0,0,0-.1-.55c-.11-.28-.16-.43-.16-.44a1.13,1.13,0,0,1,.36-.06.43.43,0,0,1,.48.36v.58a3,3,0,0,0,.47,1A1.39,1.39,0,0,1,17.6,9a.3.3,0,0,0,.25.18l.25,0,.3,0c.15,0,.33-.13.55-.4a.92.92,0,0,1,.69-.41.7.7,0,0,1,.25.1,9.59,9.59,0,0,0-2.84-5.62M8.58,1.67c.05,0,.26-.25.61-.63A2.3,2.3,0,0,1,10,.5a3.8,3.8,0,0,1,1-.17.83.83,0,0,0,.46-.28A11.68,11.68,0,0,0,10,0,9.59,9.59,0,0,0,3.6,2.24l.33.61A.72.72,0,0,1,4,3.47,1.46,1.46,0,0,1,3.63,4a.78.78,0,0,0-.33.56,1.33,1.33,0,0,0,.21.58.63.63,0,0,1-.09.74A2.83,2.83,0,0,1,1.58,7.24a8.09,8.09,0,0,0-1.33.2A11,11,0,0,0,0,10c0,.28,0,.56,0,.83a1.39,1.39,0,0,0,.77.34c.31,0,.52.31.64.85s.2.88.23,1a.62.62,0,0,0,.37.36,1,1,0,0,0,.57.12,1,1,0,0,1,.67.25,1,1,0,0,1,.47.76,5.14,5.14,0,0,1,0,1,1.18,1.18,0,0,0,.2.76.43.43,0,0,0,.71,0,1.51,1.51,0,0,0,.08-.59,3.57,3.57,0,0,0-.24-.92,4.94,4.94,0,0,1-.25-1.55,2.06,2.06,0,0,1,.51-1.42,3.58,3.58,0,0,1,1.16-.85,1.94,1.94,0,0,0,.92-.84c.2-.36.32-.58.36-.63a3.43,3.43,0,0,1,1-.69c.49-.24.72-.55.7-.9a.75.75,0,0,0-.38-.7l-.56-.22a3.83,3.83,0,0,0-.64-.06c-.29,0-.45-.16-.49-.48s-.24-.48-.62-.54-.84-.11-1.39-.2A.86.86,0,0,1,4,4.69c0-.15.2-.33.6-.56s.65-.44.68-.57a1.26,1.26,0,0,1,.22-.71.55.55,0,0,1,.4-.2c.16,0,.25,0,.3.1A.42.42,0,0,1,6.26,3s0,.13-.07.32a2.25,2.25,0,0,0-.08.58V4.2c.06.27.2.37.41.3s.36-.27.46-.62.12-.67.16-.81a1.93,1.93,0,0,1,.68-.82c.2-.17.45-.36.76-.58M13.4,16.23a1.24,1.24,0,0,0,.8-.34,1,1,0,0,0,.41-.69c0-.16,0-.25-.11-.28H14c-.17,0-.27.08-.31.18a.54.54,0,0,1-.3.34.88.88,0,0,0-.32.19.46.46,0,0,0-.21.36c0,.15.17.23.51.23M7.65,10.55a.37.37,0,0,0-.27.09l0,0a.66.66,0,0,1-.11.24L7.16,11a.7.7,0,0,1-.32.2c-.23.07-.34.17-.34.29s.13.34.39.34a.67.67,0,0,0,.33-.08,5.28,5.28,0,0,0,.43-.39.66.66,0,0,0,.28-.53c0-.14,0-.22,0-.25A.56.56,0,0,0,7.65,10.55Z" transform="translate(0.08 1.33)"/>
          </g>
        </g>
      </g>
    </g>
  </g>
</svg>