<?xml version="1.0" encoding="utf-8"?>
<svg viewBox="0 0 11.68 11.93" xmlns="http://www.w3.org/2000/svg">
  <defs>
    <style>.cls-1{fill:none;}.cls-2{isolation:isolate;}.cls-3{clip-path:url(#clip-path);}.cls-4{fill:#ae5e4c;}.cls-5,.cls-6{fill:#a04d3b;}.cls-6{opacity:0.4;mix-blend-mode:multiply;}</style>
    <clipPath id="clip-path" transform="translate(0.07 0.29)">
      <path class="cls-1" d="M10.89,3.26A5.7,5.7,0,0,0,9.75,1.67,5.53,5.53,0,0,0,5.71,0H5.63A5.46,5.46,0,0,0,2.36,1.08a5.4,5.4,0,0,0-.69.59A5.54,5.54,0,0,0,0,5.71a5.53,5.53,0,0,0,1.67,4,6.53,6.53,0,0,0,1.16.91A5.37,5.37,0,0,0,5,11.38a5.85,5.85,0,0,0,.73,0,5.43,5.43,0,0,0,3.06-.88,6.06,6.06,0,0,0,1-.79l.19-.21a5.45,5.45,0,0,0,1.48-3.83,5.85,5.85,0,0,0-.27-1.8A5.18,5.18,0,0,0,10.89,3.26Z"/>
    </clipPath>
  </defs>
  <g class="cls-2">
    <g id="Layer_2" data-name="Layer 2">
      <g id="Layer_1-2" data-name="Layer 1">
        <g class="cls-3">
          <g id="Layer0_7_FILL" data-name="Layer0 7 FILL">
            <path class="cls-4" d="M5.67,11.42a4.4,4.4,0,0,1-.73-.05H4.86l.06,0a1.55,1.55,0,0,0,.47-.59.61.61,0,0,1,.22-.32,1.28,1.28,0,0,1,.62-.1h.12a2,2,0,0,0,1-.29,1.68,1.68,0,0,1,.73-.31c.3,0,.5.2.61.58a1,1,0,0,0,.07.21v0h0A5.54,5.54,0,0,1,5.67,11.42Zm-2.89-.77a5.59,5.59,0,0,1-1.17-.91A5.56,5.56,0,0,1-.07,5.67,5.56,5.56,0,0,1,1.61,1.61,7.59,7.59,0,0,1,2.3,1l.05,0V1a.82.82,0,0,0,.33.55A.77.77,0,0,1,3,2.19a.8.8,0,0,1-.16.6,4.8,4.8,0,0,0-.68.48c-.09.09-.12.27-.09.56A.82.82,0,0,1,2,4.47c-.49.48-.79.79-.91.93a1.54,1.54,0,0,0-.24,1,.41.41,0,0,0,.26.4.82.82,0,0,0,.38.09,2.81,2.81,0,0,0,1.17-.64,2.78,2.78,0,0,1,1.37-.65l.73.22a4.4,4.4,0,0,0,1,.2,4.25,4.25,0,0,0,.81-.09,3.23,3.23,0,0,1,.68-.1A.89.89,0,0,1,8,6a1.2,1.2,0,0,1,.14.66c0,.1-.07.19-.2.27a.67.67,0,0,1-.31.09s-.13,0-.33-.31a.83.83,0,0,0-.71-.29,9.14,9.14,0,0,0-1.47.19c-1,.19-1.16.37-1.16.45a4.6,4.6,0,0,1,.18.5s0,.05-.16.38a1.2,1.2,0,0,0-.16.45.49.49,0,0,0,.13.31.9.9,0,0,1,.14.58c0,.35-.27.7-.81,1a2.08,2.08,0,0,0-.42.31l0,0Zm7.1-1.11s-.06,0-.06-.6A2.57,2.57,0,0,0,9.58,7.7a.94.94,0,0,1-.26-.46.69.69,0,0,1,.43-.6c.26-.14.39-.3.39-.5a.46.46,0,0,0,0-.21Q10,5.81,10,5.81A1.7,1.7,0,0,0,9.53,6a1.48,1.48,0,0,1-.47.14H8.83c-.05,0-.07-.09-.07-.24s.2-.34.59-.43A1.17,1.17,0,0,0,10.1,5a6.57,6.57,0,0,0,.41-.86.77.77,0,0,1,.6-.33h0v0a5.63,5.63,0,0,1,.28,1.81A5.51,5.51,0,0,1,9.93,9.53l0,0ZM8.34,8A.34.34,0,0,1,8,7.85V7.71c0-.15.07-.33.41-.33s.4.18.4.33a.29.29,0,0,1-.11.22A.6.6,0,0,1,8.34,8ZM4.83,7.8a.27.27,0,0,1-.27-.15.33.33,0,0,1,0-.15c0-.23.13-.28.23-.28h.07c.23,0,.28.19.28.3A.27.27,0,0,1,5,7.72.32.32,0,0,1,4.83,7.8ZM9.31,4.66a.49.49,0,0,1-.52-.33.79.79,0,0,0-.42-.5,3.37,3.37,0,0,0-.64-.11,1,1,0,0,1-.61-.31L6.79,3a1.56,1.56,0,0,0-.35-.41,3.87,3.87,0,0,0-.94-.3C5.13,2.15,5,2,5,1.76A1.28,1.28,0,0,1,5.28,1,1.13,1.13,0,0,0,5.59.42a2,2,0,0,0,0-.44l0,0h.13A5.56,5.56,0,0,1,9.74,1.61a5.74,5.74,0,0,1,1.14,1.6l0,0,0,0a1.41,1.41,0,0,0-.47.52,3.14,3.14,0,0,1-.38.59A.91.91,0,0,1,9.31,4.66ZM5.15,3.38c-.59,0-.89-.16-.89-.46s.2-.32.59-.32H5c.48,0,.72.16.72.39a.45.45,0,0,1,0,.24A.69.69,0,0,1,5.15,3.38Z" transform="translate(0.07 0.29)"/>
            <path class="cls-4" d="M7.37,10a2,2,0,0,1-1,.3,1.4,1.4,0,0,0-.69.09.57.57,0,0,0-.2.3,1.58,1.58,0,0,1-.48.61,5.69,5.69,0,0,0,.72,0,5.46,5.46,0,0,0,3.07-.88,1,1,0,0,1-.08-.21c-.1-.37-.29-.55-.57-.55a1.79,1.79,0,0,0-.72.3m2-4.59c-.37.09-.56.23-.56.4s0,.19,0,.2h.21a1.52,1.52,0,0,0,.46-.14A1.61,1.61,0,0,1,10,5.77a.2.2,0,0,1,.18.14.59.59,0,0,1,0,.23c0,.21-.14.39-.41.54a.66.66,0,0,0-.42.56,1,1,0,0,0,.26.44,2.65,2.65,0,0,1,.25,1.26,1.73,1.73,0,0,0,0,.57,5.47,5.47,0,0,0,1.48-3.84,5.94,5.94,0,0,0-.27-1.8.69.69,0,0,0-.56.31,7.71,7.71,0,0,1-.42.86c-.09.17-.35.31-.77.41M3,2.19a.74.74,0,0,0-.34-.58A.78.78,0,0,1,2.33,1a6.44,6.44,0,0,0-.69.6A5.48,5.48,0,0,0,0,5.67a5.48,5.48,0,0,0,1.68,4,5.54,5.54,0,0,0,1.16.91,2.08,2.08,0,0,1,.42-.31c.53-.32.8-.65.8-1a.9.9,0,0,0-.14-.56.53.53,0,0,1-.14-.33A1.41,1.41,0,0,1,3.91,8a1.86,1.86,0,0,0,.15-.36S4,7.42,3.88,7.1c0-.17.4-.33,1.2-.49a8.87,8.87,0,0,1,1.47-.18.84.84,0,0,1,.74.3q.21.3.3.3a.59.59,0,0,0,.29-.1.27.27,0,0,0,.18-.23,1.13,1.13,0,0,0-.13-.64.85.85,0,0,0-.69-.23,3.75,3.75,0,0,0-.67.09A4.35,4.35,0,0,1,5.75,6a3.91,3.91,0,0,1-1-.2L4.05,5.6a2.78,2.78,0,0,0-1.35.64,2.9,2.9,0,0,1-1.19.65.93.93,0,0,1-.4-.09.47.47,0,0,1-.27-.44,1.58,1.58,0,0,1,.24-1c.12-.14.42-.45.92-.94.09-.1.11-.3.08-.61s0-.49.1-.58a4.21,4.21,0,0,1,.68-.49A.78.78,0,0,0,3,2.19M8,7.71v.12c0,.11.15.16.31.16a.5.5,0,0,0,.31-.09.24.24,0,0,0,.1-.19c0-.19-.12-.29-.36-.29S8,7.52,8,7.71M4.59,7.63A.27.27,0,0,0,5,7.69a.21.21,0,0,0,.08-.16c0-.14-.09-.23-.25-.27s-.26,0-.26.24a.39.39,0,0,0,0,.13m1-4.42a.54.54,0,0,0,0-.22c0-.2-.23-.32-.69-.35s-.69.07-.69.28.29.42.86.42a.65.65,0,0,0,.49-.13m2.09.47a4.18,4.18,0,0,1,.66.12.86.86,0,0,1,.44.52.44.44,0,0,0,.48.3A.93.93,0,0,0,10,4.35a3.73,3.73,0,0,0,.37-.59,1.56,1.56,0,0,1,.48-.53A5.7,5.7,0,0,0,9.71,1.64,5.5,5.5,0,0,0,5.67,0H5.59a1.44,1.44,0,0,1,0,.46,1.26,1.26,0,0,1-.32.65A1.19,1.19,0,0,0,5,1.76c0,.21.18.36.53.45a3.71,3.71,0,0,1,.94.3,1.54,1.54,0,0,1,.37.41,5.1,5.1,0,0,0,.33.46A.93.93,0,0,0,7.73,3.68Z" transform="translate(0.07 0.29)"/>
            <path class="cls-5" d="M4.94,11.37a5.22,5.22,0,0,1-2.16-.72l0,0,0,0a3.2,3.2,0,0,1,.43-.31q.78-.46.78-1a.81.81,0,0,0-.13-.53.57.57,0,0,1-.14-.36A1.18,1.18,0,0,1,3.88,8,1.91,1.91,0,0,0,4,7.6s0-.1-.18-.49c0-.13.12-.32,1.22-.53a8.2,8.2,0,0,1,1.48-.19.89.89,0,0,1,.77.32c.19.26.25.28.27.28a.54.54,0,0,0,.27-.09C8,6.84,8,6.77,8,6.7a1.17,1.17,0,0,0-.13-.62.81.81,0,0,0-.66-.21A3.75,3.75,0,0,0,6.57,6a4.35,4.35,0,0,1-.82.09,4.61,4.61,0,0,1-1-.2L4,5.64a2.65,2.65,0,0,0-1.31.63,2.88,2.88,0,0,1-1.22.65.91.91,0,0,1-.41-.09.5.5,0,0,1-.3-.47,1.56,1.56,0,0,1,.26-1A12,12,0,0,1,2,4.42.78.78,0,0,0,2,3.84c0-.32,0-.52.12-.62a4.4,4.4,0,0,1,.68-.49A.8.8,0,0,0,3,2.19a.69.69,0,0,0-.33-.55A.89.89,0,0,1,2.29,1V1h0A5.52,5.52,0,0,1,5.59-.07h0V0a2.17,2.17,0,0,1,0,.47,1.19,1.19,0,0,1-.33.67A1.26,1.26,0,0,0,5,1.76c0,.19.16.33.5.41a4.53,4.53,0,0,1,1,.31,1.46,1.46,0,0,1,.37.42l.32.46a.91.91,0,0,0,.57.28,4.18,4.18,0,0,1,.66.12.86.86,0,0,1,.46.55.42.42,0,0,0,.45.28A.87.87,0,0,0,10,4.32a3.08,3.08,0,0,0,.37-.58,1.52,1.52,0,0,1,.49-.54l0,0v0a4,4,0,0,1,.26.65l0,.05h-.05a.63.63,0,0,0-.53.29c-.19.42-.33.72-.41.86a1.28,1.28,0,0,1-.8.43c-.35.09-.53.21-.53.36s0,.17,0,.17h.19a1.32,1.32,0,0,0,.45-.13A1.42,1.42,0,0,1,10,5.74a.24.24,0,0,1,.22.16.6.6,0,0,1,.05.24.68.68,0,0,1-.44.57.62.62,0,0,0-.39.53s0,.17.25.42A2.63,2.63,0,0,1,9.9,8.94a1.72,1.72,0,0,0,0,.54l0,0,0,0-.19.21a6.53,6.53,0,0,1-1,.79l0,0,0,0a1.42,1.42,0,0,1-.07-.22c-.1-.35-.27-.52-.54-.52a1.77,1.77,0,0,0-.7.29,1.93,1.93,0,0,1-1,.3H6.23a1.25,1.25,0,0,0-.58.09.59.59,0,0,0-.19.29,1.69,1.69,0,0,1-.49.62h0ZM8.39,7.46c-.3,0-.33.14-.33.25v.12c0,.08.13.12.28.12a.43.43,0,0,0,.29-.08.21.21,0,0,0,.09-.16C8.72,7.6,8.68,7.46,8.39,7.46ZM4.76,7.3c-.07,0-.15,0-.15.2a.41.41,0,0,0,0,.12.22.22,0,0,0,.21.11A.23.23,0,0,0,5,7.66.18.18,0,0,0,5,7.53c0-.12-.07-.2-.22-.23Zm.09-4.63c-.34,0-.52.09-.52.25s.28.38.82.38a.68.68,0,0,0,.46-.11.44.44,0,0,0,0-.2c0-.18-.22-.28-.66-.31Z" transform="translate(0.07 0.29)"/>
            <path class="cls-5" d="M8.39,3.8a4.18,4.18,0,0,0-.66-.12.93.93,0,0,1-.58-.3,5.1,5.1,0,0,1-.33-.46,1.54,1.54,0,0,0-.37-.41,3.71,3.71,0,0,0-.94-.3C5.16,2.12,5,2,5,1.76a1.19,1.19,0,0,1,.33-.69A1.26,1.26,0,0,0,5.63.42a1.44,1.44,0,0,0,0-.46A5.47,5.47,0,0,0,2.33,1a.78.78,0,0,0,.34.57A.74.74,0,0,1,3,2.19a.78.78,0,0,1-.15.57,4.21,4.21,0,0,0-.68.49c-.11.09-.14.28-.1.58s0,.51-.08.61c-.5.49-.8.8-.92.94a1.58,1.58,0,0,0-.24,1,.47.47,0,0,0,.27.44.93.93,0,0,0,.4.09A2.9,2.9,0,0,0,2.7,6.24,2.78,2.78,0,0,1,4.05,5.6l.72.21a3.91,3.91,0,0,0,1,.2,4.35,4.35,0,0,0,.82-.09,3.75,3.75,0,0,1,.67-.09.85.85,0,0,1,.69.23,1.13,1.13,0,0,1,.13.64.27.27,0,0,1-.18.23.59.59,0,0,1-.29.1q-.09,0-.3-.3a.84.84,0,0,0-.74-.3,8.87,8.87,0,0,0-1.47.18c-.8.16-1.2.32-1.2.49.12.32.18.49.18.5A1.86,1.86,0,0,1,3.91,8a1.41,1.41,0,0,0-.17.47.53.53,0,0,0,.14.33A.9.9,0,0,1,4,9.32c0,.34-.27.67-.8,1a2.08,2.08,0,0,0-.42.31A5.32,5.32,0,0,0,5,11.34a1.58,1.58,0,0,0,.48-.61.57.57,0,0,1,.2-.3,1.4,1.4,0,0,1,.69-.09,2,2,0,0,0,1-.3,1.79,1.79,0,0,1,.72-.3c.28,0,.47.18.57.55a1,1,0,0,0,.08.21,5.51,5.51,0,0,0,1-.79l.19-.2a1.73,1.73,0,0,1,0-.57,2.65,2.65,0,0,0-.25-1.26,1,1,0,0,1-.26-.44.66.66,0,0,1,.42-.56c.27-.15.41-.33.41-.54a.59.59,0,0,0,0-.23A.2.2,0,0,0,10,5.77a1.61,1.61,0,0,0-.43.14,1.52,1.52,0,0,1-.46.14H8.85s0-.08,0-.2.19-.31.56-.4.68-.24.77-.41a7.71,7.71,0,0,0,.42-.86.69.69,0,0,1,.56-.31,5,5,0,0,0-.26-.64,1.56,1.56,0,0,0-.48.53,3.73,3.73,0,0,1-.37.59.93.93,0,0,1-.69.27.44.44,0,0,1-.48-.3.86.86,0,0,0-.44-.52M5.67,3a.54.54,0,0,1,0,.22.65.65,0,0,1-.49.13c-.57,0-.86-.14-.86-.42s.23-.31.69-.28.69.15.69.35M4.83,7.76a.23.23,0,0,1-.24-.13.39.39,0,0,1,0-.13c0-.19.09-.27.26-.24s.25.13.25.27A.21.21,0,0,1,5,7.69a.23.23,0,0,1-.17.07M8,7.83V7.71c0-.19.12-.29.37-.29s.36.1.36.29a.24.24,0,0,1-.1.19A.5.5,0,0,1,8.34,8C8.18,8,8.07,7.94,8,7.83Z" transform="translate(0.07 0.29)"/>
          </g>
        </g>
      </g>
    </g>
  </g>
</svg>