<?xml version="1.0" encoding="utf-8"?>
<svg viewBox="0 0 74.86 77.08" xmlns="http://www.w3.org/2000/svg">
  <defs>
    <style>.cls-1{fill:none;}.cls-2{isolation:isolate;}.cls-3{clip-path:url(#clip-path);}.cls-4{fill:#3b68ac;}.cls-5{fill:#4f87d9;}.cls-6{fill:#467acb;}.cls-7,.cls-8{fill:#76acef;}.cls-8{opacity:0.4;mix-blend-mode:multiply;}</style>
    <clipPath id="clip-path" transform="translate(0 3.26)">
      <path class="cls-1" d="M68.9,26.09a27.69,27.69,0,0,0-1.23-3.88,34.05,34.05,0,0,0-7.94-12c-.2-.2-.41-.39-.64-.58A33.49,33.49,0,0,0,35,0,33.87,33.87,0,0,0,10.21,10.2L9.37,11A34.89,34.89,0,0,0,1.94,23,36.45,36.45,0,0,0,0,34.16V35A35.24,35.24,0,0,0,1.75,46.24a33.71,33.71,0,0,0,8.46,13.49A33.74,33.74,0,0,0,35,70,33.56,33.56,0,0,0,59.73,59.73a33.74,33.74,0,0,0,9-15.17A36.19,36.19,0,0,0,70,35,35.54,35.54,0,0,0,68.9,26.09Z"/>
    </clipPath>
  </defs>
  <g class="cls-2">
    <g id="Layer_2" data-name="Layer 2">
      <g id="Layer_1-2" data-name="Layer 1">
        <g class="cls-3" transform="matrix(1, 0, 0, 1, 0.758164, 0.168481)">
          <g id="Layer0_0_FILL" data-name="Layer0 0 FILL">
            <path class="cls-4" d="M35.26,70.52a34.14,34.14,0,0,1-25-10.35,34.23,34.23,0,0,1-8.53-13.6L1.58,46l.53.25A47.9,47.9,0,0,0,13,49.79c5.17,1,13.49,1.55,24.75,1.55a77.38,77.38,0,0,0,31.15-6.76l.5-.22-.15.52a34.19,34.19,0,0,1-9.1,15.29A34,34,0,0,1,35.26,70.52Z" transform="translate(0 3.26)"/>
            <path class="cls-4" d="M13,50A47.3,47.3,0,0,1,2,46.49,34.12,34.12,0,0,0,10.46,60a33.83,33.83,0,0,0,24.8,10.27A33.58,33.58,0,0,0,60,60,33.85,33.85,0,0,0,69,44.82,77.29,77.29,0,0,1,37.78,51.6Q20.8,51.6,13,50Z" transform="translate(0 3.26)"/>
            <path class="cls-5" d="M37.78,51.86c-11.29,0-19.65-.53-24.84-1.56a48.3,48.3,0,0,1-11-3.57l-.1,0,0-.1A36.07,36.07,0,0,1,0,35.26V34.11l.31,0c3.13.56,5.19.88,6.11,1s3.65.13,8.57.13A156.32,156.32,0,0,0,49,31.9c3.81-.83,10.58-2.78,20.12-5.8l.26-.08.08.26a36.1,36.1,0,0,1,1.1,9,36.64,36.64,0,0,1-1.24,9.62l0,.12-.11,0A77.92,77.92,0,0,1,37.78,51.86ZM33.9,28.54A115.14,115.14,0,0,1,13,27.05,40.6,40.6,0,0,1,2.08,23.48l-.2-.11L2,23.16a35.49,35.49,0,0,1,7.48-12l.1-.11.15,0c1,.26,2.1.52,3.22.77A73.7,73.7,0,0,0,28,14c11.42,0,20.06-.75,25.69-2.25a47.11,47.11,0,0,0,5.59-2.12l.14-.06.12.1a7.73,7.73,0,0,1,.67.6,34.61,34.61,0,0,1,8,12.1l.09.24-.24.09c-1.79.69-3.42,1.25-4.86,1.69A102.91,102.91,0,0,1,33.9,28.54Z" transform="translate(0 3.26)"/>
            <path class="cls-5" d="M.26,34.42v.84A35.46,35.46,0,0,0,2,46.49,47.3,47.3,0,0,0,13,50q7.82,1.56,24.8,1.56A77.29,77.29,0,0,0,69,44.82a36.55,36.55,0,0,0,1.22-9.56,35.54,35.54,0,0,0-1.09-8.91Q54.76,30.89,49,32.16a156.73,156.73,0,0,1-34,3.36c-5,0-7.82-.05-8.59-.14-.94-.08-3-.41-6.14-1m12.6-22.34c-1.14-.26-2.21-.52-3.23-.78a35.2,35.2,0,0,0-7.43,12A40.43,40.43,0,0,0,13.05,26.8,114.38,114.38,0,0,0,33.9,28.29a102,102,0,0,0,29.19-4.14q2.18-.66,4.85-1.68a34.22,34.22,0,0,0-7.95-12c-.2-.2-.41-.39-.64-.58A49.46,49.46,0,0,1,53.73,12Q45.21,14.27,28,14.27A74.08,74.08,0,0,1,12.86,12.08Z" transform="translate(0 3.26)"/>
            <path class="cls-6" d="M15,35.77c-5,0-7.83,0-8.62-.13-.94-.09-3-.41-6.15-1l-.22,0v-.22A37,37,0,0,1,2,23.16l.09-.28.27.14A39.91,39.91,0,0,0,13.1,26.54,113.92,113.92,0,0,0,33.9,28,102.22,102.22,0,0,0,63,23.9c1.43-.43,3-1,4.82-1.67l.24-.09.1.23a28.68,28.68,0,0,1,1.24,3.92l0,.23-.22.07c-9.57,3-16.36,5-20.17,5.82A157.47,157.47,0,0,1,15,35.77Z" transform="translate(0 3.26)"/>
            <path class="cls-6" d="M2.2,23.25A36.7,36.7,0,0,0,.26,34.42c3.16.55,5.2.88,6.14,1,.77.09,3.64.14,8.59.14a156.73,156.73,0,0,0,34-3.36q5.76-1.26,20.16-5.81a27.69,27.69,0,0,0-1.23-3.88q-2.67,1-4.85,1.68A102,102,0,0,1,33.9,28.29,114.38,114.38,0,0,1,13.05,26.8,40.43,40.43,0,0,1,2.2,23.25Z" transform="translate(0 3.26)"/>
            <path class="cls-7" d="M28,14.53a74.71,74.71,0,0,1-15.17-2.2c-1.14-.26-2.21-.52-3.24-.78l-.44-.11,1.17-1.16A34.27,34.27,0,0,1,35.26,0,33.84,33.84,0,0,1,59.53,9.7l.28.26-.36.16a50.13,50.13,0,0,1-5.65,2.14C48.12,13.77,39.43,14.53,28,14.53Z" transform="translate(0 3.26)"/>
            <path class="cls-7" d="M10.46,10.46l-.83.84c1,.26,2.09.52,3.23.78A74.08,74.08,0,0,0,28,14.27q17.24,0,25.76-2.26a49.46,49.46,0,0,0,5.62-2.13A33.43,33.43,0,0,0,35.26.26,33.92,33.92,0,0,0,10.46,10.46Z" transform="translate(0 3.26)"/>
          </g>
        </g>
      </g>
    </g>
  </g>
</svg>