<?xml version="1.0" encoding="utf-8"?>
<svg viewBox="0 0 7.79 8.1" xmlns="http://www.w3.org/2000/svg">
  <defs>
    <style>.cls-1{fill:none;}.cls-2{isolation:isolate;}.cls-3{clip-path:url(#clip-path);}.cls-4{fill:#c19c84;}.cls-5{fill:#99745d;}.cls-6,.cls-7{fill:#866651;}.cls-7{opacity:0.3;mix-blend-mode:multiply;}</style>
    <clipPath id="clip-path" transform="translate(0 0.62)">
      <path class="cls-1" d="M5.74,1A3.23,3.23,0,0,0,3.37,0,3.35,3.35,0,0,0,0,3.37,3.23,3.23,0,0,0,1,5.74a3.32,3.32,0,0,0,1.19.78,3.37,3.37,0,0,0,1.2.22,3.62,3.62,0,0,0,.94-.13,3.21,3.21,0,0,0,1.43-.87,3.21,3.21,0,0,0,1-2.37A3.27,3.27,0,0,0,5.74,1Z"/>
    </clipPath>
  </defs>
  <g class="cls-2">
    <g id="Layer_2" data-name="Layer 2">
      <g id="Layer_1-2" data-name="Layer 1">
        <g class="cls-3">
          <g id="Layer0_12_FILL" data-name="Layer0 12 FILL">
            <path class="cls-4" d="M3.41,6.78A3.42,3.42,0,0,1,2.2,6.56l-.09,0,.09,0a5.15,5.15,0,0,0,1.11-.63,1,1,0,0,0,.22-.69c0-.09-.11-.28-.62-.64a1.28,1.28,0,0,1-.67-1.07,1.38,1.38,0,0,1,.22-.77.9.9,0,0,1,.8-.43,1.1,1.1,0,0,1,.9.5,2.76,2.76,0,0,1,.33.57.72.72,0,0,1,.28-.5,1.2,1.2,0,0,1,.72-.2A.8.8,0,0,1,6.18,3a.93.93,0,0,1,.1.89,1.32,1.32,0,0,1-.57.8c-.25.16-.55.34-.89.53a4.54,4.54,0,0,0-.63.41A.62.62,0,0,0,4.05,6a.59.59,0,0,0,.22.5l.1.07.09,0-.1,0A3.69,3.69,0,0,1,3.41,6.78Zm1.82-.94c-.09,0-.15,0-.17-.09a.2.2,0,0,1,0-.09c0-.17.11-.19.17-.19s.21.07.21.19S5.36,5.84,5.23,5.84Zm.38-.34a.17.17,0,0,1-.17-.09.2.2,0,0,1,0-.09A.33.33,0,0,1,5.63,5l.09,0c.07,0,.14,0,.14.21a.28.28,0,0,1-.05.17A.22.22,0,0,1,5.61,5.5Z" transform="translate(0 0.62)"/>
            <path class="cls-4" d="M2.49,2.71a1.33,1.33,0,0,0-.21.74,1.28,1.28,0,0,0,.65,1c.43.29.64.52.64.67a1,1,0,0,1-.23.72,4.59,4.59,0,0,1-1.12.64,3.31,3.31,0,0,0,1.19.22,3.62,3.62,0,0,0,.94-.13l-.11-.08A.61.61,0,0,1,4,6a.66.66,0,0,1,.15-.44,4.25,4.25,0,0,1,.64-.41c.34-.2.64-.37.89-.54a1.21,1.21,0,0,0,.54-.77A.93.93,0,0,0,6.15,3a.79.79,0,0,0-.66-.32,1.18,1.18,0,0,0-.69.19.71.71,0,0,0-.27.56h0a3.38,3.38,0,0,0-.37-.64,1,1,0,0,0-.86-.48.88.88,0,0,0-.77.42M5.78,5.35a.42.42,0,0,0,0-.15c0-.15-.06-.2-.17-.15a.29.29,0,0,0-.18.27s0,.06,0,.07a.13.13,0,0,0,.13.07.21.21,0,0,0,.17-.11m-.69.38a.14.14,0,0,0,.14.07c.1,0,.15,0,.15-.14s0-.14-.15-.15-.15,0-.15.15A.56.56,0,0,0,5.09,5.73Z" transform="translate(0 0.62)"/>
            <path class="cls-5" d="M4.33,6.64l-.12-.08A.66.66,0,0,1,4,6a.75.75,0,0,1,.17-.47,4.61,4.61,0,0,1,.64-.42c.34-.19.64-.37.9-.53a1.2,1.2,0,0,0,.52-.76A.86.86,0,0,0,6.12,3a.73.73,0,0,0-.63-.3,1.11,1.11,0,0,0-.67.18.64.64,0,0,0-.25.52v0H4.46v0a2.83,2.83,0,0,0-.36-.63,1,1,0,0,0-.83-.47.83.83,0,0,0-.73.4,1.29,1.29,0,0,0-.21.72,1.21,1.21,0,0,0,.64,1c.44.31.65.54.65.71a1,1,0,0,1-.24.75,5.16,5.16,0,0,1-1.14.65h0A3.33,3.33,0,0,1,1,5.77a3.27,3.27,0,0,1-1-2.4A3.38,3.38,0,0,1,3.41,0,3.29,3.29,0,0,1,5.82,1a3.34,3.34,0,0,1,1,2.42,3.28,3.28,0,0,1-1,2.4,3.32,3.32,0,0,1-1.46.88h0Zm.88-1.09s-.08,0-.08.11v0s0,0,.1,0,.11,0,.11-.09,0-.1-.11-.11l0,0ZM2.06,5.29S2,5.3,2,5.38v.08a.17.17,0,0,0,.13,0c.07,0,.1,0,.1-.11s0-.08-.13-.11Zm3.66-.22-.06,0a.24.24,0,0,0-.15.23s0,0,0,0,0,0,.09,0a.17.17,0,0,0,.13-.08.33.33,0,0,0,0-.13C5.78,5.07,5.74,5.07,5.72,5.07ZM1.08,5S1,5,1,5.08a.86.86,0,0,0,.11.16.33.33,0,0,0,.22.15s.09,0,.09-.1,0-.1-.23-.26A.27.27,0,0,0,1.08,5Zm.23-.7c-.06,0-.11,0-.11.12s.08.23.24.23.14,0,.14-.15,0-.16-.19-.19ZM.85,4.2s-.07,0-.07.13l0,.08s0,0,.12,0,.09,0,.09-.1a.14.14,0,0,0-.13-.15Zm.3-.71C1,3.49,1,3.55,1,3.6a.43.43,0,0,0,0,.16v.18c0,.05.05.13.21.13s.23-.08.23-.26S1.33,3.49,1.15,3.49ZM.51,2.76s-.08,0-.08.15,0,.15.13.15S.67,3,.67,3,.6,2.77.55,2.76Zm.8-.95h0c-.05,0-.11,0-.11.16s0,.11.12.11.1,0,.1-.17S1.35,1.81,1.31,1.81Z" transform="translate(0 0.62)"/>
            <path class="cls-5" d="M2.28,3.45a1.33,1.33,0,0,1,.21-.74.88.88,0,0,1,.77-.42,1,1,0,0,1,.86.48,3.38,3.38,0,0,1,.37.64h0a.71.71,0,0,1,.27-.56,1.18,1.18,0,0,1,.69-.19A.79.79,0,0,1,6.15,3a.93.93,0,0,1,.08.86,1.21,1.21,0,0,1-.54.77c-.25.17-.55.34-.89.54a4.25,4.25,0,0,0-.64.41A.66.66,0,0,0,4,6a.61.61,0,0,0,.23.53l.11.08a3.29,3.29,0,0,0,1.44-.87,3.2,3.2,0,0,0,1-2.37A3.26,3.26,0,0,0,5.79,1,3.27,3.27,0,0,0,3.41,0,3.35,3.35,0,0,0,0,3.37,3.23,3.23,0,0,0,1,5.74a3.27,3.27,0,0,0,1.2.78,4.59,4.59,0,0,0,1.12-.64,1,1,0,0,0,.23-.72c0-.15-.21-.38-.64-.67a1.28,1.28,0,0,1-.65-1M1.43,1.91c0,.14-.05.21-.14.21S1.13,2.07,1.13,2s.05-.19.15-.2.15,0,.15.14M.71,3c0,.09,0,.14-.15.14S.38,3,.38,2.91s.06-.21.17-.19.16.1.16.24M.92,4.51a.16.16,0,0,1-.16-.09l0-.09c0-.13.06-.18.16-.16a.18.18,0,0,1,.16.19c0,.1,0,.15-.13.15m0-.57V3.77a.28.28,0,0,1,0-.18.18.18,0,0,1,.2-.14c.21,0,.31.12.32.36s-.09.3-.27.3S1,4.06,1,3.94M5.23,5.8a.14.14,0,0,1-.14-.07.56.56,0,0,1,0-.07q0-.17.15-.15t.15.15c0,.09,0,.14-.15.14M1.4,4.23c.15,0,.22.11.22.23s-.06.2-.18.2a.25.25,0,0,1-.28-.28q0-.21.24-.15M1,5.08c0-.18.09-.21.26-.08s.24.22.24.29,0,.14-.13.14a.35.35,0,0,1-.25-.17A.5.5,0,0,1,1,5.08m1,.39V5.38c0-.11.05-.15.16-.13s.16.07.16.15,0,.15-.14.15A.19.19,0,0,1,2,5.47M5.82,5.2a.42.42,0,0,1,0,.15.21.21,0,0,1-.17.11.13.13,0,0,1-.13-.07s0,0,0-.07a.29.29,0,0,1,.18-.27C5.76,5,5.82,5.05,5.82,5.2Z" transform="translate(0 0.62)"/>
            <path class="cls-6" d="M2.13,5.59a.2.2,0,0,1-.21-.11V5.39c0-.17.11-.18.15-.18h.06c.16,0,.19.12.19.19S2.25,5.59,2.13,5.59Zm-.77-.11c-.09,0-.18-.06-.28-.19S1,5.11,1,5.08s.07-.2.13-.2A.32.32,0,0,1,1.27,5c.18.14.26.25.26.33S1.43,5.48,1.36,5.48Zm.08-.78a.29.29,0,0,1-.32-.32.18.18,0,0,1,.19-.2h.1a.26.26,0,0,1,.25.27C1.66,4.62,1.58,4.7,1.44,4.7ZM.92,4.55a.2.2,0,0,1-.2-.11.38.38,0,0,1,0-.11c0-.18.1-.21.16-.21H.9a.25.25,0,0,1,.2.24A.17.17,0,0,1,.92,4.55Zm.28-.39A.26.26,0,0,1,.91,4V3.77a.31.31,0,0,1,0-.19.21.21,0,0,1,.24-.17c.16,0,.35.07.36.4S1.35,4.16,1.2,4.16Zm-.64-1a.2.2,0,0,1-.22-.23c0-.21.11-.24.17-.24H.56c.09,0,.2.08.2.28S.69,3.14.56,3.14Zm.73-1A.18.18,0,0,1,1.09,2c0-.18.1-.23.18-.24h0c.05,0,.16,0,.16.19S1.37,2.16,1.29,2.16Z" transform="translate(0 0.62)"/>
            <path class="cls-6" d="M2,5.38v.09a.19.19,0,0,0,.17.08c.09,0,.14,0,.14-.15s0-.13-.16-.15S2,5.27,2,5.38M1.25,5C1.08,4.87,1,4.9,1,5.08a.5.5,0,0,0,.12.18.35.35,0,0,0,.25.17c.09,0,.13,0,.13-.14S1.41,5.13,1.25,5m.37-.54c0-.12-.07-.2-.22-.23s-.24,0-.24.15a.25.25,0,0,0,.28.28c.12,0,.18-.07.18-.2M1,3.77v.17c0,.12.11.17.25.17s.27-.1.27-.3-.11-.36-.32-.36a.18.18,0,0,0-.2.14.28.28,0,0,0,0,.18m-.19.65a.16.16,0,0,0,.16.09c.09,0,.13,0,.13-.15a.18.18,0,0,0-.16-.19c-.1,0-.16,0-.16.16l0,.09M.56,3.1c.1,0,.15-.05.15-.14s0-.22-.16-.24-.17,0-.17.19.06.19.18.19m.73-1c.09,0,.14-.07.14-.21s-.05-.15-.15-.14-.15.08-.15.2S1.18,2.12,1.29,2.12Z" transform="translate(0 0.62)"/>
          </g>
        </g>
      </g>
    </g>
  </g>
</svg>