<svg xmlns="http://www.w3.org/2000/svg" viewBox="0 0 711.09 576.6"><defs><style>.cls-1{isolation:isolate;}.cls-2{mix-blend-mode:overlay;}.cls-3{fill:#fff;}</style></defs><g class="cls-1"><g id="Layer_2" data-name="Layer 2"><g id="OBJECTS"><g class="cls-2"><path class="cls-3" d="M138.26,134.49c3.22,0,3.22-5,0-5s-3.22,5,0,5Z"/><path class="cls-3" d="M407.94,236.17c3.22,0,3.23-5,0-5s-3.22,5,0,5Z"/><path class="cls-3" d="M404.15,123.75c3.22,0,3.23-5,0-5s-3.22,5,0,5Z"/><path class="cls-3" d="M244.36,232.38c3.22,0,3.23-5,0-5s-3.22,5,0,5Z"/><path class="cls-3" d="M262.68,152.17c3.22,0,3.22-5,0-5s-3.22,5,0,5Z"/><path class="cls-3" d="M25.18,248.2v-1.27a2,2,0,0,0-.21-1,2,2,0,0,0-.52-.8,1.85,1.85,0,0,0-.81-.52,1.84,1.84,0,0,0-1-.22l-.66.09a2.55,2.55,0,0,0-1.11.65l-.39.5a2.53,2.53,0,0,0-.34,1.26v1.27a1.88,1.88,0,0,0,.22,1,1.83,1.83,0,0,0,.51.8,1.85,1.85,0,0,0,.81.52,1.88,1.88,0,0,0,1,.22l.67-.09a2.52,2.52,0,0,0,1.1-.65l.39-.5a2.43,2.43,0,0,0,.34-1.26Z"/><path class="cls-3" d="M18.13,125.17l-1.26-1.27a1.89,1.89,0,0,0-.8-.51,1.9,1.9,0,0,0-1-.22,1.88,1.88,0,0,0-1,.22,1.93,1.93,0,0,0-.81.51l-.39.51a2.53,2.53,0,0,0-.34,1.26l.09.67a2.5,2.5,0,0,0,.64,1.1l1.27,1.26a1.77,1.77,0,0,0,.8.52,1.8,1.8,0,0,0,1,.21,1.78,1.78,0,0,0,1-.21,1.77,1.77,0,0,0,.8-.52l.39-.5a2.55,2.55,0,0,0,.35-1.27l-.09-.66a2.52,2.52,0,0,0-.65-1.1Z"/><path class="cls-3" d="M90.89,214.07c3.22,0,3.22-5,0-5s-3.22,5,0,5Z"/><path class="cls-3" d="M524.15,139.54c3.22,0,3.23-5,0-5s-3.22,5,0,5Z"/><path class="cls-3" d="M593.63,260.8c3.21,0,3.22-5,0-5s-3.23,5,0,5Z"/><path class="cls-3" d="M534.26,294.91c3.22,0,3.22-5,0-5s-3.22,5,0,5Z"/><path class="cls-3" d="M435.73,401c3.22,0,3.23-5,0-5s-3.22,5,0,5Z"/><path class="cls-3" d="M329.63,282.28c3.22,0,3.22-5,0-5s-3.22,5,0,5Z"/><path class="cls-3" d="M318.26,411.12c3.22,0,3.22-5,0-5s-3.22,5,0,5Z"/><path class="cls-3" d="M197,385.85c3.21,0,3.22-5,0-5s-3.23,5,0,5Z"/><path class="cls-3" d="M138.89,373.22c3.22,0,3.22-5,0-5s-3.22,5,0,5Z"/><path class="cls-3" d="M83.31,426.28c3.22,0,3.23-5,0-5s-3.22,5,0,5Z"/><path class="cls-3" d="M11.31,404.8c3.22,0,3.23-5,0-5s-3.22,5,0,5Z"/><path class="cls-3" d="M20.15,518.49c3.22,0,3.23-5,0-5s-3.22,5,0,5Z"/><path class="cls-3" d="M194.47,493.22c3.22,0,3.22-5,0-5s-3.22,5,0,5Z"/><path class="cls-3" d="M385.21,555.12c3.21,0,3.22-5,0-5s-3.23,5,0,5Z"/><path class="cls-3" d="M282.89,465.43c3.22,0,3.22-5,0-5s-3.22,5,0,5Z"/><path class="cls-3" d="M473.12,519.27l-1.26,1.26a2,2,0,0,0-.52.81,1.88,1.88,0,0,0-.21,1,1.83,1.83,0,0,0,.21,1,2,2,0,0,0,.52.81l.51.39a2.43,2.43,0,0,0,1.26.34l.66-.09a2.53,2.53,0,0,0,1.11-.64l1.26-1.26a2.05,2.05,0,0,0,.52-.81,2,2,0,0,0,.21-1,1.93,1.93,0,0,0-.21-1,2.05,2.05,0,0,0-.52-.81l-.51-.39a2.43,2.43,0,0,0-1.26-.34l-.66.09a2.48,2.48,0,0,0-1.11.64Z"/><path class="cls-3" d="M554.47,479.33c3.22,0,3.22-5,0-5s-3.22,5,0,5Z"/><path class="cls-3" d="M591.1,380.8c3.22,0,3.22-5,0-5s-3.22,5,0,5Z"/><path class="cls-3" d="M693.42,553.85c3.21,0,3.22-5,0-5s-3.23,5,0,5Z"/><path class="cls-3" d="M699.73,416.17c3.22,0,3.23-5,0-5s-3.22,5,0,5Z"/><path class="cls-3" d="M704.79,234.28c3.21,0,3.22-5,0-5s-3.23,5,0,5Z"/><path class="cls-3" d="M697.21,125.64c3.21,0,3.22-5,0-5s-3.23,5,0,5Z"/><path class="cls-3" d="M625.21,133.22c3.21,0,3.22-5,0-5s-3.23,5,0,5Z"/><path class="cls-3" d="M190.68,567.75c3.22,0,3.22-5,0-5s-3.22,5,0,5Z"/><path class="cls-3" d="M107.31,527.33c3.22,0,3.23-5,0-5s-3.22,5,0,5Z"/><path class="cls-3" d="M18.89,167.34a1.25,1.25,0,0,0,0-2.5,1.25,1.25,0,0,0,0,2.5Z"/><path class="cls-3" d="M79.52,119.34a1.25,1.25,0,0,0,0-2.5,1.25,1.25,0,0,0,0,2.5Z"/><path class="cls-3" d="M202.05,129.45a1.25,1.25,0,0,0,0-2.5,1.25,1.25,0,0,0,0,2.5Z"/><path class="cls-3" d="M145.21,185a1.25,1.25,0,0,0,0-2.5,1.25,1.25,0,0,0,0,2.5Z"/><path class="cls-3" d="M361.21,241.87a1.25,1.25,0,0,0,0-2.5,1.25,1.25,0,0,0,0,2.5Z"/><path class="cls-3" d="M476.15,150.92a1.25,1.25,0,0,0,0-2.5,1.25,1.25,0,0,0,0,2.5Z"/><path class="cls-3" d="M337.21,133.24a1.25,1.25,0,0,0,0-2.5,1.25,1.25,0,0,0,0,2.5Z"/><path class="cls-3" d="M402.89,143.34a1.25,1.25,0,0,0,0-2.5,1.25,1.25,0,0,0,0,2.5Z"/><path class="cls-3" d="M534.26,152.18a1.25,1.25,0,0,0,0-2.5,1.25,1.25,0,0,0,0,2.5Z"/><path class="cls-3" d="M548.15,265.87a1.25,1.25,0,0,0,0-2.5,1.25,1.25,0,0,0,0,2.5Z"/><path class="cls-3" d="M555.73,297.45a1.25,1.25,0,0,0,0-2.5,1.25,1.25,0,0,0,0,2.5Z"/><path class="cls-3" d="M573.42,205.24a1.25,1.25,0,0,0,0-2.5,1.25,1.25,0,0,0,0,2.5Z"/><path class="cls-3" d="M598.68,220.39a1.25,1.25,0,0,0,0-2.5,1.25,1.25,0,0,0,0,2.5Z"/><path class="cls-3" d="M685.84,219.13a1.25,1.25,0,0,0,0-2.5,1.25,1.25,0,0,0,0,2.5Z"/><path class="cls-3" d="M711.09,276v-1.27a1,1,0,0,0-.11-.48,1.15,1.15,0,0,0-.66-.66,1,1,0,0,0-.48-.11l-.33,0a1.21,1.21,0,0,0-.56.32,1.29,1.29,0,0,0-.36.88V276a.89.89,0,0,0,.11.48.94.94,0,0,0,.25.4,1,1,0,0,0,.41.26,1,1,0,0,0,.48.11l.33-.05a1.18,1.18,0,0,0,.55-.32,1.26,1.26,0,0,0,.37-.88Z"/><path class="cls-3" d="M697.21,145.87a1.25,1.25,0,0,0,0-2.5,1.25,1.25,0,0,0,0,2.5Z"/><path class="cls-3" d="M616.36,408.6a1.25,1.25,0,0,0,0-2.5,1.25,1.25,0,0,0,0,2.5Z"/><path class="cls-3" d="M589.84,403.55a1.25,1.25,0,0,0,0-2.5,1.25,1.25,0,0,0,0,2.5Z"/><path class="cls-3" d="M697.21,396a1.25,1.25,0,0,0,0-2.5,1.25,1.25,0,0,0,0,2.5Z"/><path class="cls-3" d="M538.05,456.6a1.25,1.25,0,0,0,0-2.5,1.25,1.25,0,0,0,0,2.5Z"/><path class="cls-3" d="M525.42,473a1.25,1.25,0,0,0,0-2.5,1.25,1.25,0,0,0,0,2.5Z"/><path class="cls-3" d="M409.21,397.24a1.25,1.25,0,0,0,0-2.5,1.25,1.25,0,0,0,0,2.5Z"/><path class="cls-3" d="M435.73,417.45a1.25,1.25,0,0,0,0-2.5,1.25,1.25,0,0,0,0,2.5Z"/><path class="cls-3" d="M289.22,379.57v1.26a.89.89,0,0,0,.11.48.87.87,0,0,0,.26.4.9.9,0,0,0,.4.26,1,1,0,0,0,.48.11l.33-.05a1.18,1.18,0,0,0,.55-.32,1.26,1.26,0,0,0,.37-.88v-1.26a.91.91,0,0,0-.11-.49.87.87,0,0,0-.26-.4.9.9,0,0,0-.4-.26.89.89,0,0,0-.48-.1l-.33,0a1.27,1.27,0,0,0-.55.32,1.3,1.3,0,0,0-.37.89Z"/><path class="cls-3" d="M325.84,387.13a1.25,1.25,0,0,0,0-2.5,1.25,1.25,0,0,0,0,2.5Z"/><path class="cls-3" d="M258.89,254.5a1.25,1.25,0,0,0,0-2.5,1.25,1.25,0,0,0,0,2.5Z"/><path class="cls-3" d="M121.21,252a1.25,1.25,0,0,0,0-2.5,1.25,1.25,0,0,0,0,2.5Z"/><path class="cls-3" d="M138.89,220.39a1.25,1.25,0,0,0,0-2.5,1.25,1.25,0,0,0,0,2.5Z"/><path class="cls-3" d="M26.47,220.39a1.25,1.25,0,0,0,0-2.5,1.25,1.25,0,0,0,0,2.5Z"/><path class="cls-3" d="M108.58,418.71a1.25,1.25,0,0,0,0-2.5,1.25,1.25,0,0,0,0,2.5Z"/><path class="cls-3" d="M34.05,430.08a1.25,1.25,0,0,0,0-2.5,1.25,1.25,0,0,0,0,2.5Z"/><path class="cls-3" d="M17.63,500.81a1.25,1.25,0,0,0,0-2.5,1.25,1.25,0,0,0,0,2.5Z"/><path class="cls-3" d="M50.47,541.24a1.25,1.25,0,0,0,0-2.5,1.25,1.25,0,0,0,0,2.5Z"/><path class="cls-3" d="M5,576.6a1.25,1.25,0,0,0,0-2.5,1.25,1.25,0,0,0,0,2.5Z"/><path class="cls-3" d="M150.26,512.18a1.25,1.25,0,0,0,0-2.5,1.25,1.25,0,0,0,0,2.5Z"/><path class="cls-3" d="M98.47,490.71a1.25,1.25,0,0,0,0-2.5,1.25,1.25,0,0,0,0,2.5Z"/><path class="cls-3" d="M224.79,572.81a1.25,1.25,0,0,0,0-2.5,1.25,1.25,0,0,0,0,2.5Z"/><path class="cls-3" d="M305.63,479.34a1.25,1.25,0,0,0,0-2.5,1.25,1.25,0,0,0,0,2.5Z"/><path class="cls-3" d="M353.63,562.71a1.25,1.25,0,0,0,0-2.5,1.25,1.25,0,0,0,0,2.5Z"/><path class="cls-3" d="M385.21,521a1.25,1.25,0,0,0,0-2.5,1.25,1.25,0,0,0,0,2.5Z"/><path class="cls-3" d="M487.52,541.24a1.25,1.25,0,0,0,0-2.5,1.25,1.25,0,0,0,0,2.5Z"/><path class="cls-3" d="M512.79,396a1.25,1.25,0,0,0,0-2.5,1.25,1.25,0,0,0,0,2.5Z"/><path class="cls-3" d="M479.94,462.92h1.27a.89.89,0,0,0,.48-.11.87.87,0,0,0,.4-.26.9.9,0,0,0,.26-.4,1,1,0,0,0,.11-.48l0-.33a1.18,1.18,0,0,0-.32-.55,1.26,1.26,0,0,0-.88-.37h-1.27a.89.89,0,0,0-.48.11.87.87,0,0,0-.4.26.9.9,0,0,0-.26.4,1,1,0,0,0-.11.48l.05.33a1.18,1.18,0,0,0,.32.55,1.26,1.26,0,0,0,.88.37Z"/><path class="cls-3" d="M626.47,474.29a1.25,1.25,0,0,0,0-2.5,1.25,1.25,0,0,0,0,2.5Z"/><path class="cls-3" d="M559.52,562.71a1.25,1.25,0,0,0,0-2.5,1.25,1.25,0,0,0,0,2.5Z"/><path class="cls-3" d="M640.36,574.08a1.25,1.25,0,0,0,0-2.5,1.25,1.25,0,0,0,0,2.5Z"/><path class="cls-3" d="M678.26,542.5a1.25,1.25,0,0,0,0-2.5,1.25,1.25,0,0,0,0,2.5Z"/><path class="cls-3" d="M699.73,519.76a1.25,1.25,0,0,0,0-2.5,1.25,1.25,0,0,0,0,2.5Z"/><path class="cls-3" d="M418.05,190.08a1.25,1.25,0,0,0,0-2.5,1.25,1.25,0,0,0,0,2.5Z"/><path class="cls-3" d="M572.15,115.55a1.25,1.25,0,0,0,0-2.5,1.25,1.25,0,0,0,0,2.5Z"/><path class="cls-3" d="M507.73,188.82a1.25,1.25,0,0,0,0-2.5,1.25,1.25,0,0,0,0,2.5Z"/><path class="cls-3" d="M203.31,186.29a1.25,1.25,0,0,0,0-2.5,1.25,1.25,0,0,0,0,2.5Z"/><path class="cls-3" d="M234.89,445.24a1.25,1.25,0,0,0,0-2.5,1.25,1.25,0,0,0,0,2.5Z"/><path class="cls-3" d="M195.73,411.13a1.25,1.25,0,0,0,0-2.5,1.25,1.25,0,0,0,0,2.5Z"/></g><g class="cls-2"><path class="cls-3" d="M134.47,21.43c3.22,0,3.22-5,0-5s-3.22,5,0,5Z"/><path class="cls-3" d="M404.15,123.12c3.22,0,3.23-5,0-5s-3.22,5,0,5Z"/><path class="cls-3" d="M400.36,10.7c3.22,0,3.23-5,0-5s-3.22,5,0,5Z"/><path class="cls-3" d="M240.58,119.33c3.21,0,3.22-5,0-5s-3.23,5,0,5Z"/><path class="cls-3" d="M258.89,39.12c3.22,0,3.22-5,0-5s-3.22,5,0,5Z"/><path class="cls-3" d="M21.39,135.14v-1.26a2,2,0,0,0-.21-1,2,2,0,0,0-.52-.81,1.93,1.93,0,0,0-.81-.51,1.84,1.84,0,0,0-1-.22l-.66.09a2.53,2.53,0,0,0-1.11.64l-.39.51a2.53,2.53,0,0,0-.34,1.26v1.26a1.9,1.9,0,0,0,.22,1,1.83,1.83,0,0,0,.51.8,1.85,1.85,0,0,0,.81.52,1.78,1.78,0,0,0,1,.21l.67-.08a2.52,2.52,0,0,0,1.1-.65l.39-.5a2.44,2.44,0,0,0,.34-1.27Z"/><path class="cls-3" d="M14.34,12.11l-1.26-1.26a1.92,1.92,0,0,0-.8-.52,2,2,0,0,0-1-.21,2,2,0,0,0-1,.21,1.85,1.85,0,0,0-.8.52l-.4.51a2.53,2.53,0,0,0-.34,1.26l.09.66a2.55,2.55,0,0,0,.65,1.11l1.26,1.26a1.85,1.85,0,0,0,.8.52,2,2,0,0,0,1,.21,2,2,0,0,0,1-.21,1.85,1.85,0,0,0,.8-.52l.39-.51a2.54,2.54,0,0,0,.35-1.26L15,13.22a2.55,2.55,0,0,0-.65-1.11Z"/><path class="cls-3" d="M87.1,101c3.22,0,3.22-5,0-5s-3.22,5,0,5Z"/><path class="cls-3" d="M520.36,26.49c3.22,0,3.23-5,0-5s-3.22,5,0,5Z"/><path class="cls-3" d="M589.84,147.75c3.22,0,3.22-5,0-5s-3.22,5,0,5Z"/><path class="cls-3" d="M530.47,181.85c3.22,0,3.22-5,0-5s-3.22,5,0,5Z"/><path class="cls-3" d="M431.94,288c3.22,0,3.23-5,0-5s-3.22,5,0,5Z"/><path class="cls-3" d="M325.84,169.22c3.22,0,3.22-5,0-5s-3.22,5,0,5Z"/><path class="cls-3" d="M314.47,298.07c3.22,0,3.22-5,0-5s-3.22,5,0,5Z"/><path class="cls-3" d="M193.21,272.8c3.21,0,3.22-5,0-5s-3.23,5,0,5Z"/><path class="cls-3" d="M135.1,260.17c3.22,0,3.22-5,0-5s-3.22,5,0,5Z"/><path class="cls-3" d="M79.52,313.22c3.22,0,3.23-5,0-5s-3.22,5,0,5Z"/><path class="cls-3" d="M7.52,291.75c3.22,0,3.23-5,0-5s-3.22,5,0,5Z"/><path class="cls-3" d="M16.37,405.43c3.21,0,3.22-5,0-5s-3.23,5,0,5Z"/><path class="cls-3" d="M190.68,380.17c3.22,0,3.22-5,0-5s-3.22,5,0,5Z"/><path class="cls-3" d="M381.42,442.06c3.21,0,3.22-5,0-5s-3.23,5,0,5Z"/><path class="cls-3" d="M279.1,352.38c3.22,0,3.22-5,0-5s-3.22,5,0,5Z"/><path class="cls-3" d="M469.33,406.22l-1.26,1.26a2.75,2.75,0,0,0-.73,1.77,2,2,0,0,0,.21,1,2,2,0,0,0,.52.81l.51.39a2.53,2.53,0,0,0,1.26.34l.66-.09a2.53,2.53,0,0,0,1.11-.64l1.26-1.27a1.85,1.85,0,0,0,.52-.8,2.32,2.32,0,0,0,0-1.93,1.85,1.85,0,0,0-.52-.8l-.51-.39a2.43,2.43,0,0,0-1.26-.34l-.66.09a2.44,2.44,0,0,0-1.11.64Z"/><path class="cls-3" d="M550.68,366.28c3.22,0,3.22-5,0-5s-3.22,5,0,5Z"/><path class="cls-3" d="M587.31,267.75c3.22,0,3.22-5,0-5s-3.22,5,0,5Z"/><path class="cls-3" d="M689.63,440.8c3.21,0,3.22-5,0-5s-3.23,5,0,5Z"/><path class="cls-3" d="M695.94,303.12c3.22,0,3.23-5,0-5s-3.22,5,0,5Z"/><path class="cls-3" d="M701,121.22c3.21,0,3.22-5,0-5s-3.23,5,0,5Z"/><path class="cls-3" d="M693.42,12.59c3.21,0,3.22-5,0-5s-3.23,5,0,5Z"/><path class="cls-3" d="M621.42,20.17c3.21,0,3.22-5,0-5s-3.23,5,0,5Z"/><path class="cls-3" d="M186.89,454.7c3.22,0,3.22-5,0-5s-3.22,5,0,5Z"/><path class="cls-3" d="M103.52,414.28c3.22,0,3.23-5,0-5s-3.22,5,0,5Z"/><path class="cls-3" d="M15.1,54.29a1.25,1.25,0,0,0,0-2.5,1.25,1.25,0,0,0,0,2.5Z"/><path class="cls-3" d="M75.73,6.29a1.25,1.25,0,0,0,0-2.5,1.25,1.25,0,0,0,0,2.5Z"/><path class="cls-3" d="M198.26,16.39a1.25,1.25,0,0,0,0-2.5,1.25,1.25,0,0,0,0,2.5Z"/><path class="cls-3" d="M141.42,72a1.25,1.25,0,0,0,0-2.5,1.25,1.25,0,0,0,0,2.5Z"/><path class="cls-3" d="M357.42,128.82a1.25,1.25,0,0,0,0-2.5,1.25,1.25,0,0,0,0,2.5Z"/><path class="cls-3" d="M472.36,37.87a1.25,1.25,0,0,0,0-2.5,1.25,1.25,0,0,0,0,2.5Z"/><path class="cls-3" d="M333.42,20.18a1.25,1.25,0,0,0,0-2.5,1.25,1.25,0,0,0,0,2.5Z"/><path class="cls-3" d="M399.1,30.29a1.25,1.25,0,0,0,0-2.5,1.25,1.25,0,0,0,0,2.5Z"/><path class="cls-3" d="M530.47,39.13a1.25,1.25,0,0,0,0-2.5,1.25,1.25,0,0,0,0,2.5Z"/><path class="cls-3" d="M544.36,152.82a1.25,1.25,0,0,0,0-2.5,1.25,1.25,0,0,0,0,2.5Z"/><path class="cls-3" d="M551.94,184.39a1.25,1.25,0,0,0,0-2.5,1.25,1.25,0,0,0,0,2.5Z"/><path class="cls-3" d="M569.63,92.18a1.25,1.25,0,0,0,0-2.5,1.25,1.25,0,0,0,0,2.5Z"/><path class="cls-3" d="M594.89,107.34a1.25,1.25,0,0,0,0-2.5,1.25,1.25,0,0,0,0,2.5Z"/><path class="cls-3" d="M682.05,106.08a1.25,1.25,0,0,0,0-2.5,1.25,1.25,0,0,0,0,2.5Z"/><path class="cls-3" d="M707.3,162.93v-1.26a1,1,0,0,0-.11-.48.9.9,0,0,0-.26-.4.87.87,0,0,0-.4-.26.89.89,0,0,0-.48-.11l-.33.05a1.13,1.13,0,0,0-.56.32,1.29,1.29,0,0,0-.36.88v1.26a.91.91,0,0,0,.11.49,1.08,1.08,0,0,0,.66.66,1,1,0,0,0,.48.1l.33,0a1.27,1.27,0,0,0,.55-.32,1.3,1.3,0,0,0,.37-.89Z"/><path class="cls-3" d="M693.42,32.82a1.25,1.25,0,0,0,0-2.5,1.25,1.25,0,0,0,0,2.5Z"/><path class="cls-3" d="M612.57,295.55a1.25,1.25,0,0,0,0-2.5,1.25,1.25,0,0,0,0,2.5Z"/><path class="cls-3" d="M586.05,290.5a1.25,1.25,0,0,0,0-2.5,1.25,1.25,0,0,0,0,2.5Z"/><path class="cls-3" d="M693.42,282.92a1.25,1.25,0,0,0,0-2.5,1.25,1.25,0,0,0,0,2.5Z"/><path class="cls-3" d="M534.26,343.55a1.25,1.25,0,0,0,0-2.5,1.25,1.25,0,0,0,0,2.5Z"/><path class="cls-3" d="M521.63,360a1.25,1.25,0,0,0,0-2.5,1.25,1.25,0,0,0,0,2.5Z"/><path class="cls-3" d="M405.42,284.18a1.25,1.25,0,0,0,0-2.5,1.25,1.25,0,0,0,0,2.5Z"/><path class="cls-3" d="M431.94,304.39a1.25,1.25,0,0,0,0-2.5,1.25,1.25,0,0,0,0,2.5Z"/><path class="cls-3" d="M285.43,266.51v1.27a.89.89,0,0,0,.11.48.87.87,0,0,0,.26.4.9.9,0,0,0,.4.26,1,1,0,0,0,.48.11l.33,0a1.26,1.26,0,0,0,.92-1.2v-1.27a.89.89,0,0,0-.11-.48.87.87,0,0,0-.26-.4.9.9,0,0,0-.4-.26,1,1,0,0,0-.48-.11l-.33.05a1.18,1.18,0,0,0-.55.32,1.26,1.26,0,0,0-.37.88Z"/><path class="cls-3" d="M322.05,274.08a1.25,1.25,0,0,0,0-2.5,1.25,1.25,0,0,0,0,2.5Z"/><path class="cls-3" d="M255.1,141.45a1.25,1.25,0,0,0,0-2.5,1.25,1.25,0,0,0,0,2.5Z"/><path class="cls-3" d="M117.42,138.92a1.25,1.25,0,0,0,0-2.5,1.25,1.25,0,0,0,0,2.5Z"/><path class="cls-3" d="M135.1,107.34a1.25,1.25,0,0,0,0-2.5,1.25,1.25,0,0,0,0,2.5Z"/><path class="cls-3" d="M22.68,107.34a1.25,1.25,0,0,0,0-2.5,1.25,1.25,0,0,0,0,2.5Z"/><path class="cls-3" d="M104.79,305.66a1.25,1.25,0,0,0,0-2.5,1.25,1.25,0,0,0,0,2.5Z"/><path class="cls-3" d="M30.26,317a1.25,1.25,0,0,0,0-2.5,1.25,1.25,0,0,0,0,2.5Z"/><path class="cls-3" d="M13.84,387.76a1.25,1.25,0,0,0,0-2.5,1.25,1.25,0,0,0,0,2.5Z"/><path class="cls-3" d="M46.68,428.18a1.25,1.25,0,0,0,0-2.5,1.25,1.25,0,0,0,0,2.5Z"/><path class="cls-3" d="M1.21,463.55a1.25,1.25,0,0,0,0-2.5,1.25,1.25,0,0,0,0,2.5Z"/><path class="cls-3" d="M146.47,399.13a1.25,1.25,0,0,0,0-2.5,1.25,1.25,0,0,0,0,2.5Z"/><path class="cls-3" d="M94.68,377.66a1.25,1.25,0,0,0,0-2.5,1.25,1.25,0,0,0,0,2.5Z"/><path class="cls-3" d="M221,459.76a1.25,1.25,0,0,0,0-2.5,1.25,1.25,0,0,0,0,2.5Z"/><path class="cls-3" d="M301.84,366.29a1.25,1.25,0,0,0,0-2.5,1.25,1.25,0,0,0,0,2.5Z"/><path class="cls-3" d="M349.84,449.66a1.25,1.25,0,0,0,0-2.5,1.25,1.25,0,0,0,0,2.5Z"/><path class="cls-3" d="M381.42,408a1.25,1.25,0,0,0,0-2.5,1.25,1.25,0,0,0,0,2.5Z"/><path class="cls-3" d="M483.73,428.18a1.25,1.25,0,0,0,0-2.5,1.25,1.25,0,0,0,0,2.5Z"/><path class="cls-3" d="M509,282.92a1.25,1.25,0,0,0,0-2.5,1.25,1.25,0,0,0,0,2.5Z"/><path class="cls-3" d="M476.15,349.87h1.27a1,1,0,0,0,.48-.11,1.15,1.15,0,0,0,.66-.66,1,1,0,0,0,.11-.48l-.05-.33a1.21,1.21,0,0,0-.32-.56,1.29,1.29,0,0,0-.88-.36h-1.27a.89.89,0,0,0-.48.11.94.94,0,0,0-.4.25,1.45,1.45,0,0,0-.37.89l.05.33a1.26,1.26,0,0,0,1.2.92Z"/><path class="cls-3" d="M622.68,361.24a1.25,1.25,0,0,0,0-2.5,1.25,1.25,0,0,0,0,2.5Z"/><path class="cls-3" d="M555.73,449.66a1.25,1.25,0,0,0,0-2.5,1.25,1.25,0,0,0,0,2.5Z"/><path class="cls-3" d="M636.57,461a1.25,1.25,0,0,0,0-2.5,1.25,1.25,0,0,0,0,2.5Z"/><path class="cls-3" d="M674.47,429.45a1.25,1.25,0,0,0,0-2.5,1.25,1.25,0,0,0,0,2.5Z"/><path class="cls-3" d="M695.94,406.71a1.25,1.25,0,0,0,0-2.5,1.25,1.25,0,0,0,0,2.5Z"/><path class="cls-3" d="M414.26,77a1.25,1.25,0,0,0,0-2.5,1.25,1.25,0,0,0,0,2.5Z"/><path class="cls-3" d="M568.36,2.5a1.25,1.25,0,0,0,0-2.5,1.25,1.25,0,0,0,0,2.5Z"/><path class="cls-3" d="M503.94,75.76a1.25,1.25,0,0,0,0-2.5,1.25,1.25,0,0,0,0,2.5Z"/><path class="cls-3" d="M199.52,73.24a1.25,1.25,0,0,0,0-2.5,1.25,1.25,0,0,0,0,2.5Z"/><path class="cls-3" d="M231.1,332.18a1.25,1.25,0,0,0,0-2.5,1.25,1.25,0,0,0,0,2.5Z"/><path class="cls-3" d="M191.94,298.08a1.25,1.25,0,0,0,0-2.5,1.25,1.25,0,0,0,0,2.5Z"/></g></g></g></g></svg>