<svg xmlns="http://www.w3.org/2000/svg" xmlns:xlink="http://www.w3.org/1999/xlink" viewBox="0 0 235.18 235.19"><defs><style>.cls-1{isolation:isolate;}.cls-2{fill:#f9eb74;}.cls-3{fill:#f0c955;}.cls-4{fill:#fff;}.cls-5{opacity:0.7;mix-blend-mode:screen;fill:url(#radial-gradient);}</style><radialGradient id="radial-gradient" cx="117.59" cy="117.59" r="117.59" gradientTransform="translate(218.71 -14.43) rotate(82.45)" gradientUnits="userSpaceOnUse"><stop offset="0" stop-color="#ffff4b"/><stop offset="0.09" stop-color="#fcf547" stop-opacity="0.88"/><stop offset="0.35" stop-color="#f6db3c" stop-opacity="0.57"/><stop offset="0.58" stop-color="#f1c633" stop-opacity="0.33"/><stop offset="0.77" stop-color="#edb82d" stop-opacity="0.15"/><stop offset="0.91" stop-color="#ebae29" stop-opacity="0.04"/><stop offset="1" stop-color="#eaab28" stop-opacity="0"/></radialGradient></defs><g class="cls-1"><g id="Layer_2" data-name="Layer 2"><g id="Layer_1-2" data-name="Layer 1"><g id="Layer0_1_FILL" data-name="Layer0 1 FILL"><path class="cls-2" d="M194.06,108.5Q183,101,187.52,85q-15.68-7-13.51-20.3-17.26-2.5-19.12-15.19Q141,52,132,41q-14.25,5.74-24.37-1.08-10.43,9.39-23.5,6.59Q78.86,58.77,63.82,60,62.2,74.24,48.63,79.06,51.48,94,40.13,102q5.7,13.58-1,24.38,9.57,9.63,6.53,23.49,12.63,5.61,13.52,20.3,17.06.1,19.12,15.19,13.76-4.62,22.85,8.55,10.86-10.27,24.38,1Q133.17,184,149,188.32q4.62-13.71,20.4-13.47,1.86-13.36,15.13-19.12-2.85-13.42,8.51-22.9Q185.76,121.32,194.06,108.5Z"/></g><g id="Layer0_2_FILL" data-name="Layer0 2 FILL"><path class="cls-3" d="M165.21,166.05q20.14-20.15,20.15-48.65T165.21,68.74Q145.05,48.6,116.55,48.59T67.9,68.74Q47.74,88.89,47.74,117.4T67.9,166.05Q88,186.21,116.55,186.2T165.21,166.05Z"/></g><g id="Layer0_2_MEMBER_0_FILL" data-name="Layer0 2 MEMBER 0 FILL"><path class="cls-4" d="M148.55,70a48.6,48.6,0,0,1,3.34,3.93q3,3.34,5.06,3.34A2.83,2.83,0,0,0,159.51,76a3.31,3.31,0,0,0,.64-2q0-1.68-3.2-5.11a45.5,45.5,0,0,0-7.08-6.1c-2.91-2-5.29-3.11-7.12-3.34q-3.19-.39-3.2,3.1a3.26,3.26,0,0,0,2.12,2.9A31.29,31.29,0,0,1,148.55,70m27.86,73.52a9.26,9.26,0,0,0,.84-3.63,3.18,3.18,0,0,0-1.18-2.66,2.82,2.82,0,0,0-2.56-.54q-3.73.84-3.73,6.54a3.44,3.44,0,0,0,.49,1.67,2.89,2.89,0,0,0,2.75,1.52c1.48,0,2.61-1,3.39-2.9m-11.1-59.56A3.44,3.44,0,0,0,166,82q0-3.24-3.2-3.39T159.51,82a3.65,3.65,0,0,0,.54,1.82,2.82,2.82,0,0,0,2.65,1.47A2.94,2.94,0,0,0,165.31,83.93Z"/></g><circle class="cls-5" cx="117.59" cy="117.59" r="117.59" transform="translate(-14.43 218.71) rotate(-82.45)"/></g></g></g></svg>